<svg width="572" height="238" viewBox="0 0 572 238" fill="none" xmlns="http://www.w3.org/2000/svg">
<path d="M132.767 93.096L161.711 187.416H148.463L142.271 165.528H107.567L101.375 187.416H88.8473L117.647 93.096H132.767ZM124.991 104.328L110.591 154.584H139.247L124.991 104.328ZM201.555 91.3679C205.107 91.3679 209.187 91.7039 213.795 92.376C218.403 92.9519 222.627 93.6239 226.467 94.392L226.179 105.192C215.331 103.08 207.123 102.024 201.555 102.024C194.931 102.024 190.179 103.368 187.299 106.056C184.515 108.648 183.123 113.016 183.123 119.16V160.92C183.123 167.064 184.515 171.528 187.299 174.312C190.179 177 194.931 178.344 201.555 178.344C205.875 178.344 211.491 177.672 218.403 176.328V144.504H200.403V132.984H230.643V183.816C219.123 187.368 209.427 189.144 201.555 189.144C190.515 189.144 182.643 186.792 177.939 182.088C173.235 177.384 170.883 170.04 170.883 160.056V120.456C170.883 110.28 173.283 102.888 178.083 98.28C182.883 93.6719 190.707 91.3679 201.555 91.3679ZM263.718 93.096V187.416H251.478V93.096H263.718ZM345.849 93.096V104.184H318.489V187.416H306.249V104.184H278.889V93.096H345.849ZM410.705 93.096V104.184H373.265V133.992H407.825V144.936H373.265V176.328H410.705V187.416H361.025V93.096H410.705ZM459.884 91.3679C463.628 91.3679 467.66 91.7519 471.98 92.5199C476.396 93.192 478.988 93.576 479.756 93.672L479.468 104.472C471.02 102.936 464.492 102.168 459.884 102.168C453.356 102.168 448.652 103.512 445.772 106.2C442.892 108.888 441.452 113.352 441.452 119.592V160.776C441.452 167.016 442.844 171.48 445.628 174.168C448.508 176.76 453.26 178.056 459.884 178.056C464.492 178.056 471.02 177.288 479.468 175.752L479.756 186.84C478.988 186.936 476.396 187.32 471.98 187.992C467.66 188.76 463.628 189.144 459.884 189.144C448.844 189.144 440.972 186.792 436.268 182.088C431.564 177.384 429.212 170.04 429.212 160.056V120.456C429.212 110.472 431.564 103.128 436.268 98.424C440.972 93.7199 448.844 91.3679 459.884 91.3679ZM560.336 93.096V187.416H548.096V144.216H510.656V187.416H498.416V93.096H510.656V133.272H548.096V93.096H560.336Z" fill="url(#paint0_linear)"/>
<path d="M19.4753 153.787C19.4753 214.578 210.682 237.394 139.331 237.394C67.9801 237.394 0 214.578 0 153.787C0 20.859 291.388 115.621 270.857 0C342.208 0 19.4753 92.9962 19.4753 153.787Z" fill="#087AE4"/>
<defs>
<linearGradient id="paint0_linear" x1="114.374" y1="134.304" x2="629.249" y2="141.278" gradientUnits="userSpaceOnUse">
<stop stop-color="#087AE4"/>
<stop offset="1" stop-color="#06C1EA" stop-opacity="0.84"/>
</linearGradient>
</defs>
</svg>
